# xmcd
# 
# Track frame offsets:
#     150
#     15405
#     30432
#     47667
#     67237
#     83420
#     99815
#     112645
#     128755
#     146757
#     157762
#     176610
#     192197
#     207705
#     221652
# 
# Disc length: 3160
# 
# Revision: 5
# Processed by: cddbd v1.5.2PL0 Copyright (c) Steve Scherf et al.
# Submitted via: BonkEnc v1.0
# 
DISCID=be0c560f
DTITLE=Leonardo - Brincadeira Tem Hora
DYEAR=2003
DGENRE=Country
TTITLE0=brincadeira tem hora
TTITLE1=escorpião
TTITLE2=quero acender teu fogo
TTITLE3=eu sei que  te perdi
TTITLE4=mulher bandida
TTITLE5=deve ser amor
TTITLE6=diz pro meu coração
TTITLE7=ai, que saudade!
TTITLE8=o que me atrai em vecê
TTITLE9=o amor se vai
TTITLE10=volta ao começo
TTITLE11=metade do meu coração
TTITLE12=era só pra ficar
TTITLE13=vai e vem
TTITLE14=rainha do meu rodeio
EXTD=YEAR: 2003
EXTT0=
EXTT1=
EXTT2=
EXTT3=
EXTT4=
EXTT5=
EXTT6=
EXTT7=
EXTT8=
EXTT9=
EXTT10=
EXTT11=
EXTT12=
EXTT13=
EXTT14=
PLAYORDER=
